<svg width="17" height="20" viewBox="0 0 17 20" fill="none" xmlns="http://www.w3.org/2000/svg">
    <path d="m8.184 11.949-1.379 2.94-1.353-2.933a1.25 1.25 0 0 0-.625-.617l-2.991-1.34 2.991-1.338-.306-.684.306.684a1.25 1.25 0 0 0 .625-.617L4.77 7.73l.68.314 1.354-2.933 1.38 2.94c.126.27.345.486.617.609L11.775 10l-2.973 1.34.309.684-.309-.684a1.25 1.25 0 0 0-.618.609zm-1.607 3.426z" stroke="#B04425" stroke-width="1.5"/>
    <path d="m14.592 4.55-.536 1.144a.5.5 0 0 1-.906-.003l-.526-1.137a.5.5 0 0 0-.25-.247L11.22 3.79a.5.5 0 0 1 0-.913l1.155-.517a.5.5 0 0 0 .25-.247L13.15.976a.5.5 0 0 1 .906-.003l.536 1.143a.5.5 0 0 0 .248.243l1.149.519a.5.5 0 0 1 0 .911l-1.15.518a.5.5 0 0 0-.247.244zM14.592 17.884l-.536 1.143a.5.5 0 0 1-.906-.003l-.526-1.137a.5.5 0 0 0-.25-.247l-1.154-.517a.5.5 0 0 1 0-.913l1.155-.517a.5.5 0 0 0 .25-.247l.525-1.137a.5.5 0 0 1 .906-.003l.536 1.143a.5.5 0 0 0 .248.244l1.149.518a.5.5 0 0 1 0 .911l-1.15.519a.5.5 0 0 0-.247.243z" fill="#B04425"/>
</svg>
